<svg xmlns="http://www.w3.org/2000/svg" xmlns:svg="http://www.w3.org/2000/svg" xmlns:xlink="http://www.w3.org/1999/xlink" id="svg3844" width="64" height="64" version="1.1"><defs id="defs3846"><linearGradient id="linearGradient1058"><stop style="stop-color:#abacae;stop-opacity:1" id="stop1054" offset="0"/><stop style="stop-color:#fafafa;stop-opacity:1" id="stop1062" offset=".5"/><stop style="stop-color:#abacae;stop-opacity:1" id="stop1056" offset="1"/></linearGradient><linearGradient id="linearGradient963"><stop style="stop-color:#910e38;stop-opacity:1" id="stop959" offset="0"/><stop style="stop-color:#910e38;stop-opacity:1" id="stop967" offset=".186"/><stop style="stop-color:#555761;stop-opacity:1" id="stop969" offset=".188"/><stop style="stop-color:#555761;stop-opacity:1" id="stop961" offset="1"/></linearGradient><linearGradient id="linearGradient941"><stop style="stop-color:#f4679d;stop-opacity:1" id="stop937" offset="0"/><stop style="stop-color:#de3e80;stop-opacity:1" id="stop939" offset="1"/></linearGradient><linearGradient id="linearGradient888"><stop id="stop884" offset="0" style="stop-color:#fafafa;stop-opacity:1"/><stop id="stop886" offset="1" style="stop-color:#d4d4d4;stop-opacity:1"/></linearGradient><linearGradient id="linearGradient3033" x1="-51.786" x2="-51.786" y1="50.786" y2="2.906" gradientTransform="matrix(1.0843523,0,0,1.1997367,79.550862,-4.1628601)" gradientUnits="userSpaceOnUse" xlink:href="#linearGradient3104-6"/><linearGradient id="linearGradient3104-6"><stop id="stop3106-3" offset="0" style="stop-color:#000;stop-opacity:.31782946"/><stop id="stop3108-9" offset="1" style="stop-color:#000;stop-opacity:.24031007"/></linearGradient><linearGradient id="linearGradient3093" x1="24" x2="24" y1="5.864" y2="42.176" gradientTransform="matrix(1.2162162,0,0,1.5405376,2.8108184,-6.9729501)" gradientUnits="userSpaceOnUse" xlink:href="#linearGradient3977-4"/><linearGradient id="linearGradient3977-4"><stop id="stop3979-7" offset="0" style="stop-color:#fff;stop-opacity:1"/><stop id="stop3981-6" offset="0" style="stop-color:#fff;stop-opacity:.23529412"/><stop id="stop3983-5" offset="1" style="stop-color:#fff;stop-opacity:.15686275"/><stop id="stop3985-6" offset="1" style="stop-color:#fff;stop-opacity:.39215687"/></linearGradient><linearGradient id="linearGradient3096" x1="25.132" x2="25.132" y1=".985" y2="47.013" gradientTransform="matrix(1.3142827,0,0,1.2602393,0.4572141,-2.1793201)" gradientUnits="userSpaceOnUse" xlink:href="#linearGradient3600-9"/><linearGradient id="linearGradient3600-9"><stop id="stop3602-3" offset="0" style="stop-color:#f4f4f4;stop-opacity:1"/><stop id="stop3604-7" offset="1" style="stop-color:#dbdbdb;stop-opacity:1"/></linearGradient><radialGradient id="radialGradient3153" cx="605.714" cy="486.648" r="117.143" fx="605.714" fy="486.648" gradientTransform="matrix(0.03212956,0,0,0.02058823,32.636786,49.45142)" gradientUnits="userSpaceOnUse" xlink:href="#linearGradient5060"/><linearGradient id="linearGradient5060"><stop id="stop5062" offset="0" style="stop-color:#000;stop-opacity:1"/><stop id="stop5064" offset="1" style="stop-color:#000;stop-opacity:0"/></linearGradient><radialGradient id="radialGradient3156" cx="605.714" cy="486.648" r="117.143" fx="605.714" fy="486.648" gradientTransform="matrix(-0.03212956,0,0,0.02058823,31.363216,49.45142)" gradientUnits="userSpaceOnUse" xlink:href="#linearGradient5060"/><linearGradient id="linearGradient5048"><stop id="stop5050" offset="0" style="stop-color:#000;stop-opacity:0"/><stop id="stop5056" offset=".5" style="stop-color:#000;stop-opacity:1"/><stop id="stop5052" offset="1" style="stop-color:#000;stop-opacity:0"/></linearGradient><linearGradient id="linearGradient3842" x1="302.857" x2="302.857" y1="366.648" y2="609.505" gradientTransform="matrix(0.08284024,0,0,0.02058823,2.0591707,49.45142)" gradientUnits="userSpaceOnUse" xlink:href="#linearGradient5048"/><linearGradient id="linearGradient3924-2-2-5-8"><stop id="stop3926-9-4-9-6" offset="0" style="stop-color:#fff;stop-opacity:1"/><stop id="stop3928-9-8-6-5" offset=".035" style="stop-color:#fff;stop-opacity:.23529412"/><stop id="stop3930-3-5-1-7" offset=".964" style="stop-color:#fff;stop-opacity:.15686275"/><stop id="stop3932-8-0-4-8" offset="1" style="stop-color:#fff;stop-opacity:.39215687"/></linearGradient><radialGradient id="radialGradient3337-2-2" cx="4.993" cy="43.5" r="2.5" fx="4.993" fy="43.5" gradientTransform="matrix(3.1638751,0,0,0.99999998,-30.744011,17.831408)" gradientUnits="userSpaceOnUse" xlink:href="#linearGradient3688-166-749-4-0-3-8"/><linearGradient id="linearGradient3688-166-749-4-0-3-8"><stop id="stop2883-4-0-1-8" offset="0" style="stop-color:#181818;stop-opacity:1"/><stop id="stop2885-9-2-9-6" offset="1" style="stop-color:#181818;stop-opacity:0"/></linearGradient><radialGradient id="radialGradient3339-1-4" cx="4.993" cy="43.5" r="2.5" fx="4.993" fy="43.5" gradientTransform="matrix(3.1638751,0,0,0.99999998,43.338128,-104.83141)" gradientUnits="userSpaceOnUse" xlink:href="#linearGradient3688-166-749-4-0-3-8"/><linearGradient id="linearGradient3702-501-757-8-4-1-1"><stop id="stop2895-8-9-9-1" offset="0" style="stop-color:#181818;stop-opacity:0"/><stop id="stop2897-7-8-7-7" offset=".5" style="stop-color:#181818;stop-opacity:1"/><stop id="stop2899-4-5-1-5" offset="1" style="stop-color:#181818;stop-opacity:0"/></linearGradient><linearGradient id="linearGradient13984" x1="25.058" x2="25.058" y1="47.028" y2="39.999" gradientTransform="matrix(1.5789502,0,0,0.7142857,-74.935874,30.259979)" gradientUnits="userSpaceOnUse" xlink:href="#linearGradient3702-501-757-8-4-1-1"/><linearGradient id="linearGradient4632-92-3-0-8-1"><stop id="stop4634-68-8-0-2-9" offset="0" style="stop-color:#fafafa;stop-opacity:1"/><stop id="stop4636-8-21-7-1-4" offset="1" style="stop-color:#e1e1e1;stop-opacity:1"/></linearGradient><linearGradient id="linearGradient3647" x1="24" x2="24" y1="5.778" y2="42.129" gradientTransform="matrix(1.2162162,0,0,1.5405406,2.8108073,-6.9017161)" gradientUnits="userSpaceOnUse" xlink:href="#linearGradient3924-2-2-5-8"/><radialGradient id="radialGradient3651" cx="32" cy="4.342" r="27.5" fx="32" fy="4.342" gradientTransform="matrix(0,2.5242563,-2.0108479,1.09873e-8,40.730931,-80.445778)" gradientUnits="userSpaceOnUse" xlink:href="#linearGradient4632-92-3-0-8-1"/><linearGradient id="linearGradient882" x1="31.337" x2="31.337" y1=".516" y2="59.415" gradientUnits="userSpaceOnUse" xlink:href="#linearGradient888"/><linearGradient id="linearGradient943" x1="14" x2="14" y1="1" y2="59" gradientUnits="userSpaceOnUse" xlink:href="#linearGradient941"/><linearGradient id="linearGradient965" x1="8" x2="56" y1="30" y2="30" gradientUnits="userSpaceOnUse" xlink:href="#linearGradient963"/><linearGradient id="linearGradient1060" x1="5" x2="14" y1="30" y2="30" gradientUnits="userSpaceOnUse" xlink:href="#linearGradient1058"/><linearGradient id="linearGradient2068-3-3-3" x1="32.497" x2="32.497" y1="103.041" y2="131.956" gradientTransform="matrix(0.87384506,0,0,0.8733849,-65.738538,-74.926429)" gradientUnits="userSpaceOnUse" xlink:href="#linearGradient1667"/><linearGradient id="linearGradient1667"><stop id="stop1663" offset="0" style="stop-color:#f4679d;stop-opacity:1"/><stop id="stop1665" offset="1" style="stop-color:#de3e80;stop-opacity:1"/></linearGradient><linearGradient id="linearGradient1641" x1="33.948" x2="28.964" y1="121.975" y2="130.946" gradientTransform="matrix(0.87384506,0,0,0.8733849,-65.738538,-74.926429)" gradientUnits="userSpaceOnUse" xlink:href="#linearGradient1915"/><linearGradient id="linearGradient1915"><stop id="stop1907" offset="0" style="stop-color:#fff;stop-opacity:1"/><stop id="stop1909" offset=".3" style="stop-color:#fff;stop-opacity:.23529412"/><stop id="stop1911" offset=".5" style="stop-color:#fff;stop-opacity:.15686275"/><stop id="stop1913" offset="1" style="stop-color:#fff;stop-opacity:.39215687"/></linearGradient><linearGradient id="linearGradient1643" x1="30.957" x2="38.931" y1="112.008" y2="128.952" gradientTransform="matrix(0.87384506,0,0,0.8733849,-65.738538,-74.926429)" gradientUnits="userSpaceOnUse" xlink:href="#linearGradient1825"/><linearGradient id="linearGradient1825"><stop id="stop1817" offset="0" style="stop-color:#fff;stop-opacity:1"/><stop id="stop1819" offset=".333" style="stop-color:#fff;stop-opacity:.23529412"/><stop id="stop1821" offset=".429" style="stop-color:#fff;stop-opacity:.15686275"/><stop id="stop1823" offset="1" style="stop-color:#fff;stop-opacity:.39215687"/></linearGradient></defs><metadata id="metadata3849"/><rect style="display:inline;overflow:visible;visibility:visible;opacity:.15;fill:url(#linearGradient3842);fill-opacity:1;fill-rule:nonzero;stroke:none;stroke-width:.951303;marker:none" id="rect2879" width="40" height="5" x="12" y="57"/><path style="display:inline;overflow:visible;visibility:visible;opacity:.15;fill:url(#radialGradient3156);fill-opacity:1;fill-rule:nonzero;stroke:none;stroke-width:1.01274;marker:none" id="path2881" d="m 12,57.00022 c 0,0 0,4.9997 0,4.9997 -1.654593,0.01 -4,-1.1202 -4,-2.5002 0,-1.38 1.8464008,-2.4995 4,-2.4995 z"/><path style="display:inline;overflow:visible;visibility:visible;opacity:.15;fill:url(#radialGradient3153);fill-opacity:1;fill-rule:nonzero;stroke:none;stroke-width:1.01274;marker:none" id="path2883" d="m 52,57.00022 c 0,0 0,4.9997 0,4.9997 1.654592,0.01 4,-1.1202 4,-2.5002 0,-1.38 -1.846401,-2.4995 -4,-2.4995 z"/><rect id="rect5505-21-3-8-5-2" width="46" height="58" x="9" y="1" rx="2.5" ry="2.5" style="color:#000;display:inline;overflow:visible;visibility:visible;fill:url(#linearGradient882);fill-opacity:1;fill-rule:nonzero;stroke:none;stroke-width:1.01949;marker:none;enable-background:accumulate"/><path id="rect103" d="m 11.5,0.5 c -1.662,0 -3,1.338 -3,3 v 53 c 0,1.662 1.338,3 3,3 h 1.5 1 3 v -3 -53 -3 h -3 -1 z" style="fill:url(#linearGradient943);fill-opacity:1;stroke:none;stroke-width:1"/><path id="path971" d="M 12,3.5 A 2.5,2.5 0 0 0 9.5,6 2.5,2.5 0 0 0 12,8.5 2.5,2.5 0 0 0 14.5,6 2.5,2.5 0 0 0 12,3.5 Z m 0,8 A 2.5,2.5 0 0 0 9.5,14 2.5,2.5 0 0 0 12,16.5 2.5,2.5 0 0 0 14.5,14 2.5,2.5 0 0 0 12,11.5 Z m 0,8 A 2.5,2.5 0 0 0 9.5,22 2.5,2.5 0 0 0 12,24.5 2.5,2.5 0 0 0 14.5,22 2.5,2.5 0 0 0 12,19.5 Z m 0,8 A 2.5,2.5 0 0 0 9.5,30 2.5,2.5 0 0 0 12,32.5 2.5,2.5 0 0 0 14.5,30 2.5,2.5 0 0 0 12,27.5 Z m 0,8 A 2.5,2.5 0 0 0 9.5,38 2.5,2.5 0 0 0 12,40.5 2.5,2.5 0 0 0 14.5,38 2.5,2.5 0 0 0 12,35.5 Z m 0,8 A 2.5,2.5 0 0 0 9.5,46 2.5,2.5 0 0 0 12,48.5 2.5,2.5 0 0 0 14.5,46 2.5,2.5 0 0 0 12,43.5 Z m 0,8 A 2.5,2.5 0 0 0 9.5,54 2.5,2.5 0 0 0 12,56.5 2.5,2.5 0 0 0 14.5,54 2.5,2.5 0 0 0 12,51.5 Z" style="opacity:.5;fill:#bc245d;stroke:#bc245d;stroke-width:1"/><rect id="rect6741-5-0-2-3" width="45" height="57.071" x="9.5" y="1.5" rx="1.929" ry="1.929" style="opacity:.5;fill:none;stroke:url(#linearGradient3647);stroke-width:1;stroke-linecap:round;stroke-linejoin:round;stroke-miterlimit:4;stroke-dasharray:none;stroke-dashoffset:0;stroke-opacity:1"/><rect id="rect5505-21-3-8-9-1-1" width="47" height="59" x="8.5" y=".5" rx="3" ry="3" style="color:#000;display:inline;overflow:visible;visibility:visible;opacity:.5;fill:none;stroke:url(#linearGradient965);stroke-width:1;stroke-linecap:butt;stroke-linejoin:miter;stroke-miterlimit:4;stroke-dasharray:none;stroke-dashoffset:0;stroke-opacity:1;marker:none;enable-background:accumulate"/><path id="rect63" d="M 7,4.5 C 6.169,4.5 5.5,5.169 5.5,6 5.5,6.831 6.169,7.5 7,7.5 h 5 C 12.831,7.5 13.5,6.831 13.5,6 13.5,5.169 12.831,4.5 12,4.5 Z m 0,8 c -0.831,0 -1.5,0.669 -1.5,1.5 0,0.831 0.669,1.5 1.5,1.5 h 5 c 0.831,0 1.5,-0.669 1.5,-1.5 0,-0.831 -0.669,-1.5 -1.5,-1.5 z m 0,8 c -0.831,0 -1.5,0.669 -1.5,1.5 0,0.831 0.669,1.5 1.5,1.5 h 5 c 0.831,0 1.5,-0.669 1.5,-1.5 0,-0.831 -0.669,-1.5 -1.5,-1.5 z m 0,8 c -0.831,0 -1.5,0.669 -1.5,1.5 0,0.831 0.669,1.5 1.5,1.5 h 5 c 0.831,0 1.5,-0.669 1.5,-1.5 0,-0.831 -0.669,-1.5 -1.5,-1.5 z m 0,8 c -0.831,0 -1.5,0.669 -1.5,1.5 0,0.831 0.669,1.5 1.5,1.5 h 5 c 0.831,0 1.5,-0.669 1.5,-1.5 0,-0.831 -0.669,-1.5 -1.5,-1.5 z m 0,8 c -0.831,0 -1.5,0.669 -1.5,1.5 0,0.831 0.669,1.5 1.5,1.5 h 5 c 0.831,0 1.5,-0.669 1.5,-1.5 0,-0.831 -0.669,-1.5 -1.5,-1.5 z m 0,8 c -0.831,0 -1.5,0.669 -1.5,1.5 0,0.831 0.669,1.5 1.5,1.5 h 5 c 0.831,0 1.5,-0.669 1.5,-1.5 0,-0.831 -0.669,-1.5 -1.5,-1.5 z" style="fill:#d4d4d4;stroke:none;stroke-width:1"/><path id="path101" d="M 7,4.5 C 6.169,4.5 5.5,5.169 5.5,6 5.5,6.831 6.169,7.5 7,7.5 h 5 C 12.831,7.5 13.5,6.831 13.5,6 13.5,5.169 12.831,4.5 12,4.5 Z m 0,8 c -0.831,0 -1.5,0.669 -1.5,1.5 0,0.831 0.669,1.5 1.5,1.5 h 5 c 0.831,0 1.5,-0.669 1.5,-1.5 0,-0.831 -0.669,-1.5 -1.5,-1.5 z m 0,8 c -0.831,0 -1.5,0.669 -1.5,1.5 0,0.831 0.669,1.5 1.5,1.5 h 5 c 0.831,0 1.5,-0.669 1.5,-1.5 0,-0.831 -0.669,-1.5 -1.5,-1.5 z m 0,8 c -0.831,0 -1.5,0.669 -1.5,1.5 0,0.831 0.669,1.5 1.5,1.5 h 5 c 0.831,0 1.5,-0.669 1.5,-1.5 0,-0.831 -0.669,-1.5 -1.5,-1.5 z m 0,8 c -0.831,0 -1.5,0.669 -1.5,1.5 0,0.831 0.669,1.5 1.5,1.5 h 5 c 0.831,0 1.5,-0.669 1.5,-1.5 0,-0.831 -0.669,-1.5 -1.5,-1.5 z m 0,8 c -0.831,0 -1.5,0.669 -1.5,1.5 0,0.831 0.669,1.5 1.5,1.5 h 5 c 0.831,0 1.5,-0.669 1.5,-1.5 0,-0.831 -0.669,-1.5 -1.5,-1.5 z m 0,8 c -0.831,0 -1.5,0.669 -1.5,1.5 0,0.831 0.669,1.5 1.5,1.5 h 5 c 0.831,0 1.5,-0.669 1.5,-1.5 0,-0.831 -0.669,-1.5 -1.5,-1.5 z" style="opacity:.5;fill:url(#linearGradient1060);fill-opacity:1;stroke:#555761;stroke-width:1"/><g id="g934" transform="matrix(0.99970255,0,0,0.98403215,72.54999,2.2435709)" style="stroke-width:1.00823"><path style="color:#000;font-style:normal;font-variant:normal;font-weight:400;font-stretch:normal;font-size:medium;line-height:normal;font-family:sans-serif;font-variant-ligatures:normal;font-variant-position:normal;font-variant-caps:normal;font-variant-numeric:normal;font-variant-alternates:normal;font-variant-east-asian:normal;font-feature-settings:normal;font-variation-settings:normal;text-indent:0;text-align:start;text-decoration:none;text-decoration-line:none;text-decoration-style:solid;text-decoration-color:#000;letter-spacing:normal;word-spacing:normal;text-transform:none;writing-mode:lr-tb;direction:ltr;text-orientation:mixed;dominant-baseline:auto;baseline-shift:baseline;text-anchor:start;white-space:normal;shape-padding:0;shape-margin:0;inline-size:0;clip-rule:nonzero;display:inline;overflow:visible;visibility:visible;opacity:.15;isolation:auto;mix-blend-mode:normal;color-interpolation:sRGB;color-interpolation-filters:linearRGB;solid-color:#000;solid-opacity:1;vector-effect:none;fill:#f4679d;fill-opacity:1;fill-rule:nonzero;stroke:none;stroke-linecap:butt;stroke-linejoin:miter;stroke-miterlimit:4;stroke-dasharray:none;stroke-dashoffset:0;stroke-opacity:1;marker:none;color-rendering:auto;image-rendering:auto;shape-rendering:auto;text-rendering:auto;enable-background:accumulate;stop-color:#000;stop-opacity:1" id="path941" d="m -26.751953,14.09375 c -0.516907,0.08323 -1.008934,0.332511 -1.5,0.576172 l -0.152344,-0.04883 -0.390625,0.257812 -0.01367,0.0078 -0.210937,0.140625 -0.119141,0.11914 c -0.03496,0.02754 -0.06758,0.05555 -0.09961,0.08203 l -0.02539,0.01367 -0.0625,0.05273 c 0.02198,-0.0186 -0.02357,0.01225 -0.11914,0.09961 l -0.697266,0.636719 0.05273,0.06641 -9.691406,11.757813 -3.441406,-3.660157 -0.199219,-0.210937 c -1.707525,-1.800442 -4.540033,-2.279617 -6.511719,-0.923828 -1.093279,0.751771 -1.86421,1.972462 -2.234375,3.314453 -0.369105,1.338151 -0.316673,2.88267 0.611328,4.089844 0.0027,0.0035 0.0012,0.0083 0.0039,0.01172 0.0011,0.0021 0.01161,0.01739 0.01172,0.01758 9e-6,1.5e-5 -10e-7,0.002 0,0.002 l 8.203125,11.037109 c 0.08322,0.112181 0.166702,0.208788 0.246094,0.291016 l 0.0059,0.0059 0.01172,0.01172 0.02539,0.02734 0.01953,0.01563 c 1.312447,1.183369 2.833139,1.70625 4.279297,1.539062 1.446158,-0.167188 2.747587,-0.972897 3.808594,-2.142578 l 0.04492,-0.04883 12.710937,-18.220703 h 0.002 l 0.701172,-1.003907 0.0039,-0.0039 0.05078,-0.07422 c 1.093675,-1.574976 0.997897,-3.573646 0.140625,-5.16211 l -0.0039,-0.0098 -0.0059,-0.0098 c -1.151046,-2.025418 -3.342881,-2.994377 -5.455078,-2.654297 z m -24.972656,16.042969 c 9.16e-4,0.004 0.0039,0.01751 0.0039,0.01758 8.3e-5,2.77e-4 0.0504,0.09573 0.09961,0.189453 -0.04911,-0.09797 -0.103603,-0.207339 -0.103515,-0.207031 z"/><path style="color:#000;font-style:normal;font-variant:normal;font-weight:400;font-stretch:normal;font-size:medium;line-height:normal;font-family:sans-serif;font-variant-ligatures:normal;font-variant-position:normal;font-variant-caps:normal;font-variant-numeric:normal;font-variant-alternates:normal;font-variant-east-asian:normal;font-feature-settings:normal;font-variation-settings:normal;text-indent:0;text-align:start;text-decoration:none;text-decoration-line:none;text-decoration-style:solid;text-decoration-color:#000;letter-spacing:normal;word-spacing:normal;text-transform:none;writing-mode:lr-tb;direction:ltr;text-orientation:mixed;dominant-baseline:auto;baseline-shift:baseline;text-anchor:start;white-space:normal;shape-padding:0;shape-margin:0;inline-size:0;clip-rule:nonzero;display:inline;overflow:visible;visibility:visible;opacity:.15;isolation:auto;mix-blend-mode:normal;color-interpolation:sRGB;color-interpolation-filters:linearRGB;solid-color:#000;solid-opacity:1;vector-effect:none;fill:#de3e80;fill-opacity:1;fill-rule:nonzero;stroke:none;stroke-linecap:butt;stroke-linejoin:miter;stroke-miterlimit:4;stroke-dasharray:none;stroke-dashoffset:0;stroke-opacity:1;marker:none;color-rendering:auto;image-rendering:auto;shape-rendering:auto;text-rendering:auto;enable-background:accumulate;stop-color:#000;stop-opacity:1" id="path935" d="m -28.251953,15.728516 -0.126953,0.08398 -0.08398,0.08398 c -0.06543,0.04911 -0.132222,0.10414 -0.201171,0.16211 l -0.0098,0.0059 c -0.03157,0.02672 -0.05959,0.04478 -0.0918,0.07422 l 0.01563,0.01953 c -0.09109,0.07658 -0.197165,0.14055 -0.271484,0.230469 l -10.710938,12.990234 -4.283203,-4.552734 -0.03711,-0.03906 -0.002,-0.0039 -0.09961,-0.105469 c -1.357003,-1.430846 -3.753828,-1.786374 -5.207031,-0.787109 -1.666881,1.146197 -2.761797,4.202659 -1.394531,5.96875 0.0013,0.0017 6.37e-4,0.0042 0.002,0.0059 l 8.224609,11.066407 c 0.05389,0.0728 0.110738,0.1382 0.162109,0.191406 l 0.0059,0.0059 0.0078,0.0078 c 2.29161,2.066234 4.784937,1.54056 6.666049,-0.533227 l 12.976562,-18.59961 h 0.002 l 0.451172,-0.646484 0.002,-0.002 c 0.850904,-1.225367 0.791107,-2.795507 0.08203,-4.109375 -1.278797,-2.250213 -3.936637,-2.89017 -6.078125,-1.517578 z"/><path style="color:#000;font-style:normal;font-variant:normal;font-weight:400;font-stretch:normal;font-size:medium;line-height:normal;font-family:sans-serif;font-variant-ligatures:normal;font-variant-position:normal;font-variant-caps:normal;font-variant-numeric:normal;font-variant-alternates:normal;font-variant-east-asian:normal;font-feature-settings:normal;font-variation-settings:normal;text-indent:0;text-align:start;text-decoration:none;text-decoration-line:none;text-decoration-style:solid;text-decoration-color:#000;letter-spacing:normal;word-spacing:normal;text-transform:none;writing-mode:lr-tb;direction:ltr;text-orientation:mixed;dominant-baseline:auto;baseline-shift:baseline;text-anchor:start;white-space:normal;shape-padding:0;shape-margin:0;inline-size:0;clip-rule:nonzero;display:inline;overflow:visible;visibility:visible;opacity:.3;isolation:auto;mix-blend-mode:normal;color-interpolation:sRGB;color-interpolation-filters:linearRGB;solid-color:#000;solid-opacity:1;vector-effect:none;fill:#bc245d;fill-opacity:1;fill-rule:nonzero;stroke:none;stroke-linecap:butt;stroke-linejoin:miter;stroke-miterlimit:4;stroke-dasharray:none;stroke-dashoffset:0;stroke-opacity:1;marker:none;color-rendering:auto;image-rendering:auto;shape-rendering:auto;text-rendering:auto;enable-background:accumulate;stop-color:#000;stop-opacity:1" id="path928" d="m -25.417969,16.033991 -0.115234,0.03711 0.234375,-0.01953 z m 0.119141,0.01758 c -0.806465,-0.12205 -1.667893,0.03586 -2.396484,0.517578 l -0.04102,0.02734 -0.03711,0.03711 c -0.0013,0.0013 -0.0026,0.0026 -0.0039,0.0039 -0.112759,0.08307 -0.222079,0.16701 -0.308594,0.246094 l 0.08984,-0.06445 c -0.09436,0.05432 -0.178679,0.12701 -0.248047,0.210938 L -39.683594,30.903132 -44.75,25.518366 l -0.134766,-0.142578 -0.002,-0.0039 c -1.113767,-1.174374 -2.948859,-1.365438 -4.30664,-0.472657 h -0.002 l -0.002,0.002 c -0.06082,0.04051 -0.103134,0.100754 -0.152343,0.154296 -1.306315,1.003386 -1.633396,2.870601 -0.607422,4.191407 l 8.236328,11.083984 c 0.02411,0.03281 0.04985,0.06251 0.07813,0.0918 l 0.002,0.002 0.002,0.002 c 1.120718,1.139378 2.929101,1.31516 4.269531,0.433594 l 0.0039,-0.002 c 0.338027,-0.223815 0.625454,-0.507037 0.851562,-0.832031 l 13.277344,-19.03125 h 0.002 l 0.150391,-0.214844 c 0.726397,-1.046066 0.711072,-2.467137 -0.09766,-3.509766 v -0.002 h -0.002 c -0.534525,-0.686092 -1.307962,-1.094624 -2.115234,-1.216797 z m -12.070313,24.808594 -0.273437,0.08203 h 0.15039 z"/><path id="path859-59-98-9-4-7" d="m -25.374405,15.533731 c -0.690224,-0.104458 -1.424745,0.03136 -2.042954,0.440099 a 0.40643702,0.40622298 0 0 0 -0.0018,0.0018 c -0.117222,0.07791 -0.222616,0.16991 -0.325985,0.264401 a 0.40643702,0.40622298 0 0 0 -0.110937,0.09382 l -11.801998,14.315295 -5.594657,-5.944816 a 0.40643702,0.40622298 0 0 0 0,-0.0018 c -0.940414,-0.991588 -2.51012,-1.158074 -3.664305,-0.399163 a 0.40643702,0.40622298 0 0 0 -0.116058,0.117706 c -1.117048,0.844319 -1.385821,2.393032 -0.525672,3.500361 l 8.243499,11.09301 a 0.40643702,0.40622298 0 0 0 0.03584,0.04262 c 0.946665,0.962427 2.494476,1.114239 3.633627,0.365049 a 0.40643702,0.40622298 0 0 0 0.0018,0 c 0.284974,-0.188687 0.526998,-0.426543 0.716825,-0.699389 l 13.426838,-19.246879 a 0.40643702,0.40622298 0 0 0 0.0018,0 c 0.603848,-0.869586 0.594041,-2.042096 -0.08192,-2.913559 -0.448963,-0.576269 -1.103618,-0.924164 -1.793772,-1.028612 z" style="font-variation-settings:normal;vector-effect:none;fill:url(#linearGradient2068-3-3-3);fill-opacity:1;stroke:#910e38;stroke-width:1.00823;stroke-linecap:butt;stroke-linejoin:miter;stroke-miterlimit:4;stroke-dasharray:none;stroke-dashoffset:0;stroke-opacity:.5;marker:none;stop-color:#000"/><path id="path859-59-9-4-7-5-2" d="m -39.561758,31.931383 c -0.147102,0.02803 -0.298368,-0.02072 -0.401477,-0.129222 l -5.747881,-6.135897 c -0.567743,-0.784053 -1.734519,-1.093272 -2.531683,-0.6257 -0.975367,0.572096 -1.03204,1.78661 -0.457603,2.370194 0.121073,0.174884 8.138347,10.958343 8.138347,10.958343 0.297341,0.298113 0.584788,0.444104 1.000297,0.508114" style="font-variation-settings:normal;opacity:.6;vector-effect:none;fill:none;fill-opacity:1;stroke:url(#linearGradient1641);stroke-width:1.00823;stroke-linecap:butt;stroke-linejoin:miter;stroke-miterlimit:4;stroke-dasharray:none;stroke-dashoffset:0;stroke-opacity:.5;marker:none;stop-color:#000"/><path id="path859-59-9-7-8-3-2-2" d="m -39.561758,38.877215 c 0.493072,0.0759 1.302339,-0.113304 1.648644,-0.508114 4.856283,-6.158952 13.44817,-19.308312 13.44817,-19.308312 0.500149,-0.508114 0.610225,-1.608399 -0.245375,-2.251363 -1.229906,-0.657661 -2.045001,-0.09061 -2.347719,0.130665 -0.101324,0.06746 -12.239355,14.823535 -12.239355,14.823535 -0.06628,0.07948 -0.158418,0.133043 -0.260281,0.151325" style="font-variation-settings:normal;opacity:.8;vector-effect:none;fill:none;fill-opacity:1;stroke:url(#linearGradient1643);stroke-width:1.00823;stroke-linecap:butt;stroke-linejoin:miter;stroke-miterlimit:4;stroke-dasharray:none;stroke-dashoffset:0;stroke-opacity:.5;marker:none;stop-color:#000"/></g><path style="opacity:.5;fill:none;stroke:#910e38;stroke-width:1px;stroke-linecap:butt;stroke-linejoin:miter;stroke-opacity:1" id="path932" d="M 16.5,1 V 59"/></svg>